<?xml version="1.0" encoding="utf-8"?>
<!-- Generator: Adobe Illustrator 19.0.0, SVG Export Plug-In . SVG Version: 6.00 Build 0)  -->
<svg version="1.1" id="logo_x5F_color_xA0_Image_1_"
	 xmlns="http://www.w3.org/2000/svg" xmlns:xlink="http://www.w3.org/1999/xlink" x="0px" y="0px" viewBox="0 0 349 200.5"
	 style="enable-background:new 0 0 349 200.5;" xml:space="preserve">
<style type="text/css">
	.st0{fill:#330101;}
	.st1{fill:#FDCB05;}
</style>
<g>
	<g>
		<path class="st0" d="M177,148.1c-0.2-0.2-0.4-0.3-0.5-0.4c-1.3-1.9-3.2-0.9-4.9-1.2c-2.5,2.7-3.4-0.6-4.9-1.3
			c-2.8-1.3-3.6-4.3-5.1-6.6c-1.5-2.4-3.6-4.4-5.7-6.2c-2.2-1.9-4.5-3.7-6.6-5.7c-4.1-3.8-8.2-7.7-12.2-11.7
			c-2.2-2.2-4.3-4.5-6.1-7.1c-3.9-5.7-7.4-11.6-10.6-17.7c-1.1-2.1-2.1-4.4-3.7-6.3c-0.4-0.4-0.3-0.9,0-1.3c0.3-0.5,0.7-0.4,1.2-0.2
			c4,1.6,8.1,3.2,12.1,4.8c4,1.6,8.1,3.1,12.1,4.7c2.6,1,5.2,0.4,7.8,0.2c2.3-0.1,4.5-0.2,6.8-0.4c2.4-0.2,4.8-0.6,7.2-0.4
			c2.6,0.2,5-0.5,7.6-0.3c3.7,0.3,7.4-0.2,11.2,0.2c6,0.5,11.9,0.6,17.9,1.1c1.7,0.1,3.2-0.2,4.8-0.8c7.8-3,15.5-6,23.3-9.1
			c0.6-0.2,1-0.5,1.5,0.3c0.4,0.7,0.1,0.9-0.2,1.4c-1.3,2.1-2.6,4.3-3.7,6.5c-2.3,4.5-4.8,8.8-7.5,13.1c-4.2,6.8-9.8,12.2-15.5,17.7
			c-4.4,4.3-9.1,8.3-13.7,12.3c-2.5,2.2-4.3,4.9-5.9,7.7c-1.2,2.2-3,3.6-5,5c-0.5,0.4-1.2,0.6-1.4,1.3
			C177.4,147.9,177.2,148,177,148.1z"/>
		<path class="st0" d="M336.1,39.7c1.4,0.2,2.6,1.1,4,1.5c0.4,0.1,0.9,0.3,1.3,0.6c0.3,0.2,0.9,0.2,0.8,0.6c-0.1,0.4-0.3,0.8-0.9,1
			c-2,0.7-3.8,1.7-5.8,2.3c-2.1,0.7-2.8,2.4-3.9,4c-4,6.2-8.1,12.4-12.1,18.7c-1,1.6-2.7,1.4-4.1,1.7c-3.7,0.8-7.4,1.4-11.1,2.1
			c-3.9,0.7-7.8,1.5-11.6,2.2c-1,0.2-1.8,0.4-2.1,1.6c-0.2,1.2,0.3,1.8,1.1,2.5c1,0.8,2,1.6,3,2.4c0.3,0.2,0.6,0.4,0.4,0.8
			c-0.2,0.4-0.6,0.2-0.9,0.2c-5.1,0.4-10.3,0.7-15.4,1.1c-2.5,0.2-4.7,1.3-6.9,2.1c-9.1,3.2-18.2,6.5-27.3,9.7c-5.6,2-11.2,4-16.8,6
			c-0.4,0.1-0.9,0.5-1.2,0.1c-0.2-0.3,0.2-0.7,0.4-1c2.1-3.9,4.3-7.8,6.4-11.7c0.3-0.6,0.6-1.3,0.7-2c0.1-0.6,0.5-1.1,1-1.4
			c11.6-8.7,23.3-17.5,34.9-26.2c4.2-3.2,8.5-6.3,12.7-9.6c1.6-1.2,3.5-1,5.2-1.3c7.7-1.3,15.4-2.6,23.1-3.8
			c7.4-1.2,14.8-2.4,22.2-3.6C334.3,40.1,335.2,39.9,336.1,39.7z"/>
		<path class="st0" d="M120.3,100.6c-1.3,0.4-2.4-0.5-3.6-0.9c-5.7-1.9-11.3-4-16.9-6C89.9,90.2,80,86.6,70,83.2
			c-2.1-0.7-4.2-0.5-6.3-0.7c-3.6-0.4-7.1-0.4-10.7-0.6c-0.4,0-0.9,0.1-1-0.3c-0.2-0.5,0.4-0.7,0.7-0.9c1-0.9,2.2-1.7,3.2-2.7
			c1.4-1.4,0.8-3.3-1.1-3.7c-6.9-1.3-13.8-2.6-20.7-3.9c-1.2-0.2-2.4-0.4-3.7-0.6c-1.5-0.2-2.5-0.9-3.3-2.3
			c-4.1-6.5-8.5-12.9-12.6-19.5c-1.3-2-3.2-2.4-5-3.2c-1.2-0.6-2.5-1-3.8-1.5c-0.5-0.2-0.6-0.6-0.7-1c0-0.3,0.5-0.3,0.8-0.4
			c0.6-0.2,1.2-0.5,1.7-0.8c2.8-2,5.8-0.9,8.7-0.5c4.3,0.6,8.6,1.4,12.9,2.2c6,1,12.1,1.9,18.1,3c3.7,0.6,7.5,1.2,11.2,1.8
			c1.3,0.2,2.6,0.5,4,0.6c1.5,0.1,2.5,1.4,3.6,2.2C73,55.6,80,60.9,87.1,66.2c7.4,5.6,14.8,11.2,22.2,16.8c0.5,0.4,1.2,0.7,1.7,1.2
			c0.8,0.6,1.5,1.3,1.8,2.4c0.7,2.5,2.3,4.6,3.4,6.9C117.4,95.9,118.9,98.2,120.3,100.6L120.3,100.6z"/>
		<path class="st0" d="M235.7,103.1c-0.2-1.1,0.3-1.7,1.5-2.1c3.7-1.2,7.3-2.6,10.9-3.9c0.3-0.1,0.7-0.5,1,0
			c0.2,0.3-0.1,0.6-0.2,0.9c-2.2,4.4-4.5,8.7-6.5,13.1c-5.1,11.2-10.6,22.2-16,33.2c-1.9,4-3.9,8-5.8,12.1c-0.4,0.9-1.1,1.3-1.9,1.8
			c-7.4,3.6-14.9,7.3-22.3,11c-1.8,0.9-3.6,1.9-5.5,2.7c-1.7,0.7-3.2,1.8-4.8,2.4c-2.9,1.2-5.6,3-8.4,4.3c-1.1,0.5-1.3,0.2-1.3-0.8
			c-0.1-2-0.1-4,1.1-5.8c1-1.6,1.8-3.4,2.7-5c1.6-2.8,2.1-5.9,2.6-9c0.3-1.5-0.8-2.6-1.4-3.8c-0.4-0.8-1.3-1.7-1.2-2.4
			c0.1-0.5,1.3-1,2.1-1.4c3.1-2,5.3-4.7,6.9-8c0.4-0.9,0.8-0.9,1.5-0.3c2.4,2.2,4.9,4.1,8.2,4.8c2.1,0.5,4.1-0.2,6.1-0.8
			c4.4-1.2,8.4-3.2,11.8-6.2c2.3-2,4-4.7,5.5-7.3c3.2-5.2,6.1-10.5,8.8-16c1.9-3.9,3.2-7.9,4.7-11.9
			C235.8,104.1,235.7,103.6,235.7,103.1z"/>
		<path class="st0" d="M146.8,146.9c2.8-0.1,5.1-1.4,7.3-3c0.8-0.6,1.5-1.3,2.3-2c0.6-0.5,1-0.5,1.4,0.3c1.8,3.9,4.7,6.9,8.5,8.9
			c0.5,0.3,0.7,0.6,0.3,1.1c-0.6,0.9-1.1,1.9-1.7,2.8c-1.3,1.8-0.5,3.7-0.3,5.6c0.7,4.6,3.4,8.3,5.4,12.3c0.9,1.8,0.7,3.6,0.4,5.4
			c-0.1,0.5-0.6,0.2-0.9,0c-1.9-1.1-3.9-2.3-5.9-3.1c-2.4-1-4.6-2.4-6.9-3.4c-1.7-0.8-3.3-1.9-5-2.6c-3.8-1.6-7.4-3.6-11.1-5.3
			c-3.2-1.5-6.4-3.2-9.6-4.7c-0.2-0.1-0.4-0.4-0.7-0.4c-2.7-0.5-3.8-2.6-4.9-4.9c-2.4-5.2-5-10.4-7.5-15.6
			c-3.8-8-7.8-15.9-11.5-23.9c-2.5-5.5-5.4-10.7-7.8-16.1c-0.2-0.4-0.6-0.7-0.3-1.1c0.3-0.5,0.8,0,1.1,0.1c3.6,1.3,7.1,2.6,10.7,3.8
			c1,0.3,1.3,1.1,1.2,1.7c-0.3,2,0.9,3.6,1.4,5.4c1,3.5,2.6,6.8,4.2,10.1c3.3,6.5,6.8,13,11.2,18.9c3.8,5,9.1,7.5,15,9.1
			C144.2,146.6,145.5,147,146.8,146.9z"/>
		<path class="st1" d="M200.8,144.5c-2.9,0.1-4.8-1.3-6.8-2.5c-0.5-0.3-1-0.8-1.6-1.2c-1.4-1-1.5-1.6-0.2-2.7
			c1.3-1.1,2.6-2.2,3.9-3.4c0.6-0.5,1-0.7,1.7,0c1.3,1.2,2.5,2.5,4.4,2.9c2.8,0.6,5.2-0.5,7.6-1.7c4.3-2,6.4-5.9,7.8-10.1
			c2-6.1,4.1-12.1,5.4-18.3c0.3-1.3,0.9-2,2.3-2.3c1.3-0.2,2.6-0.8,3.8-1.4c1.1-0.5,1.4-0.1,1.4,0.9c0,0.3-0.1,0.6-0.1,1
			c-2.7,10.6-7.5,20.3-13.2,29.6c-3.1,5-8,7.1-13.3,8.7C202.8,144.3,201.6,144.7,200.8,144.5z"/>
		<path class="st1" d="M147.8,144.4c-6.3-0.3-11.6-2.5-15.9-6.6c-2.2-2.1-3.6-4.9-5-7.6c-3.1-5.7-5.9-11.6-8.1-17.7
			c-0.9-2.5-1.8-5.1-2.1-7.9c-0.1-0.9,0.4-1,0.9-0.7c1.7,0.7,3.4,1.3,5.2,1.8c0.7,0.2,0.8,0.9,0.9,1.4c1.5,6.5,3.6,12.9,5.7,19.2
			c1.4,4.1,3.5,7.7,7.5,9.8c1.9,1,4,1.7,6.2,1.9c2.5,0.2,4.2-1.2,5.8-2.8c0.7-0.7,1.1-1.1,2-0.2c1.4,1.4,3,2.7,4.5,4
			c0.4,0.3,0.7,0.6,0.1,1.1c-2.2,1.9-4.4,3.6-7.3,4.3C147.9,144.4,147.8,144.4,147.8,144.4z"/>
		<path class="st1" d="M179.5,157.8c-0.4,3.9-2,7.3-4,10.6c-0.1,0.2-0.5,0.3-0.6,0.5c-0.5,0.5-0.8,1.1-1.3,1.6c-1,1.1-0.8-0.4-1-0.6
			c-0.5-0.5-0.8-1.1-1.1-1.7c-1.9-3.1-3.2-6.5-3.8-10.1c-0.1-0.4,0-0.7,0.2-1.1c1.2-2.2,2.4-4.5,4.5-6.1c0.2-0.2,2.2-0.4,2.4-0.2
			c2.2,1.7,3.5,4.1,4.7,6.5C179.5,157.4,179.5,157.6,179.5,157.8z"/>
		<path class="st1" d="M216.6,118.4c-0.7,4.1-1.4,8.5-3.6,12.5c-0.5,1-1.7,1.3-2.3,2c-0.9,1.1-2.1,1.5-3.2,2
			c-1.4,0.7-2.9,1.3-4.5,0.9c-1.5-0.3-2.5-1.4-3.6-2.3c-0.6-0.5-0.5-1.2,0.1-1.7c0.4-0.4,1-0.7,1.4-1.2c1.1-1.1,2.1-1.6,3.6-0.3
			c1.9,1.6,4.6,0.1,5.7-1.4c1.5-2,2.2-4.3,1.4-6.8c-0.2-0.7-0.2-1.2,0.4-1.9c1-1.2,2.1-2.3,3.2-3.3c0.3-0.2,0.5-0.8,1-0.6
			c0.4,0.2,0.3,0.8,0.3,1.2C216.6,117.7,216.6,117.9,216.6,118.4z"/>
		<path class="st1" d="M143.2,135.9c-2.4-0.3-4.4-1.3-6.4-2.7c-4.7-3.3-4.7-8.6-5.9-13.5c-0.2-0.8-0.4-1.7-0.3-2.6
			c0-0.3,0-0.6,0.3-0.8c0.3-0.2,0.5,0.2,0.7,0.3c1.2,1.2,2.4,2.4,3.6,3.6c0.5,0.5,0.5,0.9,0.3,1.5c-0.9,3.4,0.2,6.6,2.8,8.3
			c1.9,1.2,3.1,1.3,5.1-0.2c0.9-0.7,1.5-0.6,2.3,0.2c0.5,0.5,1.1,1,1.7,1.4c1.2,0.9,0.9,1.7-0.1,2.4
			C145.9,134.8,144.9,136.1,143.2,135.9z"/>
		<path class="st1" d="M210.9,123.7c0,3.1-1.5,5.5-3.8,6.2c-0.9,0.3-2.9-0.5-3.3-1.3c-0.2-0.4,0-0.5,0.2-0.7c0.3-0.3,0.5-0.5,1-0.2
			c0.6,0.4,1.1,1.4,1.8,0.9c0.6-0.4,0.3-1.4,0.4-2.1c0.1-1.9,1.1-3,2.5-4.1c0.9-0.8,1.1-0.4,1.2,0.5
			C210.8,123.2,210.9,123.5,210.9,123.7z"/>
		<path class="st1" d="M136.2,123.9c0.1-0.7,0.1-1.7,0.5-1.9c0.6-0.3,0.9,0.7,1.4,1.1c1.4,1,2.1,2.3,1.7,4.1
			c-0.1,0.6-0.1,1.3,0.5,1.6c0.6,0.3,0.9-0.5,1.4-0.6c0.4-0.1,0.6-0.9,1.2-0.2c0.3,0.4,0.3,0.5-0.1,0.9c-2.2,2.2-4,0.9-5.5-0.9
			C136.5,126.7,136.4,125.3,136.2,123.9z"/>
		<path class="st0" d="M120.3,100.6c-0.1,0.1-0.1,0.1-0.2,0.2c0,0-0.1-0.1-0.1-0.1C120.1,100.7,120.2,100.6,120.3,100.6
			C120.3,100.6,120.3,100.6,120.3,100.6z"/>
	</g>
</g>
</svg>
