<?xml version="1.0" encoding="utf-8"?>
<!-- Generator: Adobe Illustrator 19.0.0, SVG Export Plug-In . SVG Version: 6.00 Build 0)  -->
<svg version="1.1" id="logo_x5F_color_xA0_Image_1_"
	 xmlns="http://www.w3.org/2000/svg" xmlns:xlink="http://www.w3.org/1999/xlink" x="0px" y="0px" viewBox="0 0 349 200.5"
	 style="enable-background:new 0 0 349 200.5;" xml:space="preserve">
<g>
	<g>
		<path d="M177,148.2c-0.3-0.2-0.5-0.3-0.6-0.5c-1.8-1.5-3.7-1.5-5.6-0.2c-0.3,0.2-0.6,0.5-1.1,0.1c-3.1-2.3-6-4.7-7.7-8.4
			c-1.6-3.5-4.9-5.8-7.8-8.3c-3.5-3-6.9-6-10.2-9.2c-1.1-1.1-2.2-2.1-3.4-3.2c-3.3-3.1-6.5-6.4-9.2-10c-3.2-4.5-6.1-9.2-8.8-14
			c-2-3.5-3.6-7.2-5.9-10.5c-0.3-0.5-0.3-0.9,0-1.4c0.3-0.5,0.7-0.5,1.2-0.3c3.9,1.5,7.7,3.1,11.6,4.5c4.9,1.8,9.5,4.1,14.6,5.4
			c2,0.5,3.9-0.2,5.9-0.2c2.4,0,4.8-0.3,7.3-0.5c3.9-0.2,7.9-0.3,11.8-0.8c1-0.1,2.1,0.3,3.2,0.2c4.8-0.4,9.6,0.1,14.4,0.3
			c4.2,0.2,8.4,0.4,12.6,0.8c3.8,0.4,7.2-1.2,10.6-2.4c3.9-1.4,7.8-3.1,11.7-4.7c2.3-0.9,4.6-1.8,6.9-2.7c0.6-0.2,1.3-0.7,1.9,0.1
			c0.6,0.8,0.1,1.2-0.3,1.8c-1.9,3.2-3.6,6.6-5.4,9.8c-1.9,3.4-4,6.7-6,10.1c-3.6,6-8.6,10.8-13.5,15.7c-4.4,4.3-9,8.3-13.6,12.3
			c-2.9,2.4-5.5,5-7.1,8.5c-1.2,2.6-3.3,4.4-5.7,5.9C178,147.1,177.6,147.7,177,148.2z"/>
		<path d="M342.3,42.3c-0.2,0.5-0.5,0.9-1,1.1c-1.8,0.7-3.6,1.5-5.4,2.2c-1.5,0.6-2.5,1.5-3.4,2.9c-4.2,6.6-8.5,13.1-12.7,19.7
			c-1,1.6-2.6,1.5-4.1,1.8c-5.4,1.1-10.7,2-16.1,3c-2.2,0.4-4.5,0.9-6.7,1.3c-0.9,0.2-1.7,0.3-2,1.5c-0.2,1.1,0.2,1.8,1,2.4
			c1,0.8,1.9,1.6,2.9,2.4c0.3,0.2,0.6,0.5,0.5,0.9c-0.1,0.5-0.6,0.4-1,0.4c-3.7,0.3-7.4,0.8-11,0.8c-3.9,0-7.5,1.1-11.2,2.4
			c-9.1,3.2-18.2,6.4-27.2,9.7c-5.1,1.8-10.1,3.6-15.2,5.5c-0.6,0.2-1.2,0.4-1.9,0.7c-0.3,0.1-0.7,0.2-0.9-0.1
			c-0.4-0.4-0.1-0.7,0.1-1c1.2-2.1,2.5-4.1,3.5-6.2c1.3-2.7,3.2-5.1,3.9-8.1c0.1-0.5,0.6-0.7,0.9-1c15.7-11.8,31.5-23.6,47.2-35.5
			c1.3-1,2.7-1.2,4.2-1.4c3.6-0.5,7.2-1.2,10.8-1.8c8.5-1.4,17-2.7,25.4-4.1c4-0.6,7.9-1.2,11.9-2c1.3-0.2,2.4-0.1,3.5,0.5
			c1.1,0.5,2.2,0.9,3.2,1.4C341.9,41.8,342.3,41.9,342.3,42.3z"/>
		<path d="M120,101c-3.3-1.2-6.5-2.3-9.7-3.5c-7.3-2.6-14.6-5.2-21.9-7.8c-6-2.1-12-4.2-18-6.3c-2.3-0.8-4.6-0.6-6.9-0.8
			c-3.5-0.4-7-0.4-10.5-0.6c-0.4,0-0.9,0.1-1.1-0.5c-0.1-0.4,0.3-0.7,0.6-0.9c0.9-0.7,1.8-1.5,2.7-2.2c0.8-0.7,1.4-1.4,1.2-2.5
			c-0.2-1.2-1.1-1.4-2.1-1.5c-6.8-1.3-13.7-2.6-20.5-3.9c-1.1-0.2-2.3-0.4-3.4-0.6c-1.5-0.2-2.6-0.9-3.4-2.3
			c-3.9-6.1-7.9-12.1-11.7-18.3c-1.4-2.3-3.4-3.6-5.8-4.4c-1.2-0.4-2.4-1-3.7-1.4c-0.5-0.2-0.8-0.5-0.8-1c0-0.5,0.4-0.5,0.8-0.7
			c1.2-0.5,2.4-1.1,3.6-1.6c0.9-0.5,1.9-0.4,2.9-0.2c6.5,1.1,13.1,2.2,19.6,3.3c6.1,1,12.2,1.9,18.2,2.9c4.1,0.7,8.3,1.3,12.4,2
			c1.9,0.4,3.2,1.9,4.7,3C73.7,56,80.4,61,87,66c8.2,6.2,16.5,12.4,24.7,18.6c0.5,0.4,0.8,0.8,1,1.4c1,2.9,2.8,5.5,4.1,8.3
			c1.1,2.2,2.5,4.1,3.4,6.4C120.2,100.8,120.1,100.9,120,101z"/>
		<path d="M176.3,175.9c-0.2-1.2,0.2-2.4,0.9-3.6c1-1.7,1.8-3.5,2.8-5.2c1.7-2.9,2.2-6,2.8-9.2c0.2-1.1-0.3-2-0.9-2.9
			c-0.6-1.1-1.7-2.2-1.7-3.3c0-1.2,1.8-1.4,2.7-2.1c2.6-1.9,4.4-4.2,5.9-7c0.9-1.6,0.9-1.7,2.4-0.5c1.6,1.4,3.2,2.5,5,3.5
			c2.9,1.6,5.7,1.1,8.6,0.2c4.3-1.3,8.4-3.1,11.7-6.1c2.3-2.1,4-4.7,5.6-7.3c3.2-5.3,6.2-10.7,8.9-16.2c1.8-3.8,3.2-7.7,4.5-11.6
			c0.1-0.3,0.1-0.6,0.1-0.8c-0.3-1.8,0.6-2.6,2.2-3.1c3.4-1.1,6.7-2.4,10-3.5c0.4-0.1,0.8-0.5,1.2-0.1c0.4,0.4,0,0.8-0.1,1.2
			c-1.9,4-3.9,7.9-5.8,11.8c-2.9,5.7-5.5,11.6-8.2,17.4c-2.4,5.1-4.9,10.1-7.4,15.1c-2.2,4.5-4.4,9.1-6.5,13.7
			c-0.5,1-1.2,1.6-2.1,2.1c-7.4,3.6-14.9,7.3-22.3,10.9c-3.4,1.7-6.8,3.4-10.2,5.1c-2.7,1.3-5.3,2.9-8.1,4.1c-1.8,0.8-1.9,0.7-2-1.3
			C176.3,176.7,176.3,176.4,176.3,175.9z"/>
		<path d="M146.9,146.7c2.7-0.1,5-1.4,7.1-2.9c0.8-0.6,1.5-1.2,2.2-1.9c0.7-0.7,1.3-0.6,1.8,0.3c0.5,0.9,1,1.8,1.5,2.7
			c1.5,2.6,3.9,4.3,6.3,5.8c1,0.6,1.2,1.1,0.5,2.1c-0.6,0.8-0.9,1.8-1.5,2.6c-1.2,1.7-0.4,3.5-0.1,5.3c0.6,4.6,3.4,8.3,5.3,12.3
			c0.8,1.7,0.9,3.5,0.4,5.3c-0.1,0.5-0.5,0.6-0.9,0.4c-0.4-0.1-0.8-0.3-1.1-0.5c-4.8-2.5-9.7-5-14.6-7.4c-5.6-2.8-11.3-5.5-17-8.2
			c-3-1.5-6-3-9-4.5c-0.7-0.3-1.2-0.8-1.5-1.5c-2.8-5.8-5.6-11.5-8.4-17.3c-3.9-8.2-8-16.3-11.8-24.5c-2.4-5.4-5.4-10.5-7.7-15.9
			c-0.2-0.5-0.8-1-0.3-1.5c0.4-0.5,1,0,1.4,0.1c3.4,1.2,6.8,2.5,10.3,3.7c0.8,0.3,1.4,0.8,1.3,1.6c-0.3,1.8,0.6,3.3,1.1,4.8
			c2.1,6.4,5.2,12.4,8.5,18.3c1.9,3.4,3.9,6.7,6.1,9.9c3.9,5.9,9.6,8.8,16.1,10.6C144.3,146.5,145.6,146.8,146.9,146.7z"/>
		<path d="M200.4,144.6c-2.2,0.2-3.9-1-5.6-2c-0.9-0.5-1.8-1.2-2.6-1.9c-1-0.7-1.1-1.5-0.3-2.3c1.5-1.4,3-2.7,4.5-4
			c0.6-0.5,1-0.2,1.5,0.2c1.4,1,2.5,2.4,4.3,2.8c2.8,0.6,5.2-0.5,7.7-1.6c4.2-2,6.2-5.6,7.6-9.8c2-6,4-12.1,5.5-18.3
			c0.3-1.5,0.9-2.4,2.5-2.7c1.2-0.2,2.4-0.8,3.6-1.2c1.2-0.5,1.5-0.2,1.5,1c0,0.5-0.1,0.9-0.3,1.4c-1.1,5-3,9.6-5.1,14.2
			c-2.5,5.4-5.1,10.7-8.4,15.7c-2.2,3.3-5.6,5-9,6.6C205.4,143.8,203,144.4,200.4,144.6z"/>
		<path d="M146.2,144.4c-7.4-1.2-13.7-4-17.6-11c-3.8-6.7-7.1-13.6-9.9-20.8c-1-2.5-1.8-5.1-2.1-7.8c-0.2-1.1,0.3-1.2,1.2-0.9
			c1.6,0.5,3.1,1.1,4.7,1.6c0.9,0.3,1.1,1,1.3,1.8c1.4,6.2,3.4,12.2,5.4,18.2c1,3,2.2,6,4.6,8.2c2.4,2.2,5.3,3.6,8.5,4.1
			c2.6,0.4,4.7-0.7,6.4-2.6c0.8-0.9,1.5-1.1,2.4-0.2c1.3,1.3,2.7,2.5,4.1,3.7c0.6,0.5,0.7,1.1,0,1.6c-1.9,1.6-4,3.1-6.4,4
			C148,144.5,147.1,144.4,146.2,144.4z"/>
		<path d="M179.6,157.9c-0.8,2.4-0.8,4.9-2.1,7.2c-1.1,1.8-2,3.7-3.5,5.2c-0.7,0.7-0.9,0.6-1.4-0.1c-1.2-1.9-2.2-3.9-3.3-5.9
			c-1.1-2-1.4-4.3-1.6-6.5c-0.1-1.6,1.3-3.1,2.3-4.5c0.5-0.7,1.2-1.3,1.9-1.9c1.1-1.1,2.4-1,3.6,0.1c1.7,1.5,2.7,3.5,3.8,5.5
			C179.4,157.2,179.5,157.5,179.6,157.9z"/>
		<path d="M216.7,118c-0.7,4.3-1.2,8.8-3.6,12.7c-2,3.2-5.4,5-9.2,5.3c-1.9,0.2-3.3-1.2-4.5-2.5c-0.6-0.6-0.3-1.4,0.3-2
			c0.8-0.7,1.7-1.3,2.5-2c0.5-0.4,1-0.3,1.4,0.1c2.5,2.7,6.6,0.5,7.6-2.5c0.6-1.7,1-3.3,0.4-5.1c-0.3-0.7-0.1-1.3,0.4-1.9
			c0.9-1.1,2-2.1,3-3.1c0.3-0.3,0.6-1,1.2-0.6C216.7,116.7,216.7,117.3,216.7,118z"/>
		<path d="M143.3,135.9c-2.4-0.2-4.5-1.2-6.4-2.5c-4.3-2.8-4.6-7.5-5.8-11.9c-0.3-1.3-0.6-2.6-0.6-4c0-0.4-0.1-0.8,0.3-1
			c0.4-0.2,0.7,0.2,0.9,0.4c0.6,0.5,1.2,1,1.7,1.5c1.4,1.4,2.3,2.7,1.8,5.1c-0.5,2.7,0.6,5.3,3.2,6.8c1.4,0.9,2.9,1,4.3-0.1
			c1.2-0.9,2.1-0.9,3.1,0.2c0.4,0.5,0.9,0.8,1.4,1.2c1,0.8,0.9,1.6-0.1,2.3C146.1,134.8,145,136,143.3,135.9z"/>
		<path d="M210.9,124.1c0,2.8-1.5,5.1-3.8,5.7c-0.9,0.3-2.7-0.4-3.2-1.2c-0.2-0.3-0.1-0.6,0.1-0.9c0.3-0.3,0.6-0.3,1-0.1
			c0.6,0.3,1,1.2,1.7,0.7c0.5-0.4,0.2-1.2,0.3-1.9c0.1-1.7,0.9-2.9,2.2-3.9c0.3-0.3,0.7-0.8,1.2-0.5c0.4,0.2,0.4,0.8,0.5,1.3
			C211,123.6,210.9,123.9,210.9,124.1z"/>
		<path d="M140.6,130c-0.5-0.2-1-0.3-1.4-0.5c-2.3-1.2-3.6-4.4-2.9-6.9c0.2-0.8,0.5-0.8,1-0.3c1.4,1.3,2.9,2.5,2.5,4.8
			c-0.1,0.5-0.1,1.2,0.5,1.5c0.6,0.3,0.9-0.3,1.3-0.6c0.4-0.3,0.8-0.7,1.3-0.1c0.5,0.7-0.3,0.9-0.6,1.2
			C141.9,129.6,141.3,129.8,140.6,130z"/>
	</g>
</g>
</svg>
